<svg id="katman_1" data-name="katman 1" xmlns="http://www.w3.org/2000/svg" viewBox="0 0 776.41 193.45"><defs><style>.cls-1{fill:#fff;}.cls-2{fill:none;stroke:#fff;stroke-miterlimit:10;}</style></defs><path class="cls-1" d="M197.87,135.23,209.06,59.4H180.19l4.28-25.89h88.81L268.86,59.4H241.31l-11.05,75.83Z"/><path class="cls-1" d="M310.64,113.34h28.1a31.15,31.15,0,0,1-14.15,18.19q-10.57,6.39-26.52,6.39-18.92,0-29.9-9.56t-11-25.93q0-20.52,11.95-32.74t32-12.22q19.81,0,30.18,10t10.35,29.24c0,1.2,0,2.41-.1,3.63s-.17,2.45-.31,3.69H286.61v1.32q0,6.82,3.31,10.42t9.67,3.59a14.78,14.78,0,0,0,7.18-1.58A7.9,7.9,0,0,0,310.64,113.34Zm-22.79-24.1h25.9q-.15-6.57-3.25-10.12t-8.77-3.56a12.68,12.68,0,0,0-9.25,3.59Q288.82,82.75,287.85,89.24Z"/><path class="cls-1" d="M349.52,110h27.69c.05,3.41.93,6,2.67,7.91s4.19,2.8,7.38,2.8a10.81,10.81,0,0,0,6.44-1.79,5.4,5.4,0,0,0,.42-8.81,21.87,21.87,0,0,0-6.95-3.44l-1-.41q-30.54-11-30.55-25,0-11.52,9.26-17.55t26.72-6q16.65,0,25.73,6.07T427,81.36H400.62v-.55a6.63,6.63,0,0,0-2.53-5.52,11,11,0,0,0-7-2,9.83,9.83,0,0,0-5.72,1.45,4.67,4.67,0,0,0-2,4A5.06,5.06,0,0,0,385.61,83q2.33,1.73,9.06,3.85c1.25.41,3.11,1,5.6,1.73q9.81,2.91,14.3,5.46a20.48,20.48,0,0,1,7.6,7.2,17.9,17.9,0,0,1,2.76,9.54q0,12.8-9.67,19.85t-27.42,7.06q-18.15,0-28.24-7.16t-10.08-20Z"/><path class="cls-1" d="M488.05,106.09h28.38q-3,15.39-13.6,23.54t-27.42,8.15q-18.59,0-29.35-9.66T435.29,102q0-20.16,11.91-32.28T479,57.61q18,0,28.21,8.15t10.46,22.65h-27.9q-.13-5.11-2.83-7.84c-1.79-1.82-4.35-2.73-7.66-2.73q-6.91,0-10.81,6.56t-3.9,18.16q0,7.39,2.83,11.12t8.42,3.73a11.26,11.26,0,0,0,8-3.11A14.29,14.29,0,0,0,488.05,106.09Z"/><path class="cls-1" d="M525.55,101.46q0-20.1,12.25-32.11t32.84-12q18.51,0,29.28,9.74t10.77,26.45q0,20.79-11.91,32.59t-32.84,11.81q-18.65,0-29.52-9.84T525.55,101.46ZM570,77.63q-7.05,0-10.88,6.53t-3.83,18.4q0,7.39,2.73,11c1.82,2.4,4.63,3.6,8.46,3.6q6.63,0,10.56-6.56T580.93,93c0-5.1-.91-8.94-2.73-11.49S573.63,77.63,570,77.63Z"/><path class="cls-1" d="M617.05,135.23l11.18-75.07h26.18l-1.59,9.74A35.87,35.87,0,0,1,664,60.72a28.77,28.77,0,0,1,13-3c5.15,0,9.36,1.14,12.6,3.41a18.24,18.24,0,0,1,6.87,10.26,40,40,0,0,1,12.05-10.26,29.27,29.27,0,0,1,13.85-3.41q11,0,17.47,6.25t6.42,17.09c0,1.06-.07,2.43-.2,4.11s-.35,3.6-.63,5.76l-6.07,44.27H711.1l5.8-41.85c.14-.87.25-1.74.32-2.59s.1-1.78.1-2.8a6.82,6.82,0,0,0-1.93-5.24,8,8,0,0,0-5.67-1.8,9.36,9.36,0,0,0-7.56,3.14q-2.65,3.15-3.76,10.53l-6.08,40.61H664.14l5.8-42.13c.14-.87.25-1.72.32-2.55s.1-1.59.1-2.28q0-3.73-2-5.52c-1.36-1.2-3.39-1.8-6.11-1.8a8.76,8.76,0,0,0-7.15,3q-2.52,3-3.62,10.08l-6.22,41.16Z"/><path class="cls-1" d="M115.11,33.13,85.26,3.28a11.22,11.22,0,0,0-15.85,0l-29.9,29.9a0,0,0,0,0,0,.06h75.52A.07.07,0,0,0,115.11,33.13Z"/><path class="cls-1" d="M90.33,146.31l61.05-61a11.2,11.2,0,0,0,0-15.85l-10-10,0,0h-51a0,0,0,0,0,0,0v86.91A0,0,0,0,0,90.33,146.31Z"/><path class="cls-1" d="M64.12,59.34H13.34L3.28,69.41a11.22,11.22,0,0,0,0,15.85l60.8,60.79a0,0,0,0,0,.08,0V59.38A0,0,0,0,0,64.12,59.34Z"/><circle class="cls-2" cx="764.24" cy="52.32" r="11.18" transform="translate(38.15 296.44) rotate(-22.5)"/><path class="cls-1" d="M759.36,58.42V46.22h5.18a8.84,8.84,0,0,1,2.84.33,2.84,2.84,0,0,1,1.42,1.17,3.55,3.55,0,0,1,.53,1.92,3.25,3.25,0,0,1-.81,2.27A3.91,3.91,0,0,1,766.11,53a5.48,5.48,0,0,1,1.32,1,12.89,12.89,0,0,1,1.4,2l1.49,2.38h-2.94l-1.78-2.66A20.52,20.52,0,0,0,764.3,54a1.83,1.83,0,0,0-.74-.51,4.14,4.14,0,0,0-1.24-.13h-.5v5.09Zm2.46-7h1.82a9.35,9.35,0,0,0,2.21-.15,1.32,1.32,0,0,0,.7-.52,1.6,1.6,0,0,0,.24-.91,1.49,1.49,0,0,0-.32-1,1.45,1.45,0,0,0-.93-.48c-.2,0-.8,0-1.8,0h-1.92Z"/><path class="cls-1" d="M179.47,154h6.39l-2.57,13.54h.14c.9-1.31,1.84-2.39,2.7-3.46L194.54,154h8.1l-12.28,13.09,7,17.23h-7l-5.09-13.18L182,174.19l-1.93,10.12h-6.39Z"/><path class="cls-1" d="M220.19,171.44h-10.8L208,178.78h12.1l-1,5.53H200.48L206.24,154h18l-1.08,5.53H211.69L210.43,166h10.8Z"/><path class="cls-1" d="M225.28,177.29a14.24,14.24,0,0,0,7.15,1.94c2.52,0,4.82-1.17,4.82-3.56,0-1.71-1.31-2.83-4.1-4.27-3.24-1.76-6.3-4.09-6.3-8.05,0-6.12,5.36-9.86,12-9.86A14.3,14.3,0,0,1,246,155l-2,5.4a12.14,12.14,0,0,0-5.67-1.35c-3,0-4.59,1.53-4.59,3.19s1.85,2.84,4.41,4.28c3.69,1.93,6,4.41,6,8,0,6.75-5.58,10.21-12.33,10.21-4.23,0-7.24-1.08-8.68-2.16Z"/><path class="cls-1" d="M259.25,154l-5.76,30.32H247L252.77,154Zm-5.31-4.59a3.27,3.27,0,0,1,3.33-3.33A2.86,2.86,0,0,1,260.2,149a3.22,3.22,0,0,1-3.29,3.29A2.87,2.87,0,0,1,253.94,149.4Z"/><path class="cls-1" d="M259.7,184.31,265.46,154h7.6l4,11.56c1.21,3.87,2,7,2.74,10.35H280A73.19,73.19,0,0,1,281.34,165l2.07-11h6l-5.71,30.32H277l-4.23-12.1a97.29,97.29,0,0,1-3-10.57l-.13,0c-.36,2.93-1.08,7.25-2,12l-2,10.62Z"/><path class="cls-1" d="M300.06,159.66h-8l1.13-5.67h22.54l-1.08,5.67h-8.1l-4.63,24.65h-6.48Z"/><path class="cls-1" d="M325.94,154l-5.76,30.32H313.7L319.46,154Zm-5.31-4.59a3.26,3.26,0,0,1,3.33-3.33,2.86,2.86,0,0,1,2.92,2.92,3.22,3.22,0,0,1-3.28,3.29A2.86,2.86,0,0,1,320.63,149.4Z"/><path class="cls-1" d="M327.69,177.29a14.28,14.28,0,0,0,7.16,1.94c2.52,0,4.81-1.17,4.81-3.56,0-1.71-1.3-2.83-4.09-4.27-3.24-1.76-6.3-4.09-6.3-8.05,0-6.12,5.35-9.86,12-9.86a14.3,14.3,0,0,1,7.15,1.53l-2,5.4a12.14,12.14,0,0,0-5.67-1.35c-3,0-4.59,1.53-4.59,3.19s1.84,2.84,4.41,4.28c3.69,1.93,6,4.41,6,8,0,6.75-5.58,10.21-12.33,10.21-4.23,0-7.25-1.08-8.69-2.16Z"/><path class="cls-1" d="M361.67,154l-5.76,30.32h-6.48L355.19,154Zm-5.31-4.59a3.26,3.26,0,0,1,3.33-3.33,2.86,2.86,0,0,1,2.92,2.92,3.22,3.22,0,0,1-3.28,3.29A2.86,2.86,0,0,1,356.36,149.4Z"/><path class="cls-1" d="M360.81,180.58l17.6-20.83v-.18H366.08l1.08-5.58h21.06l-.77,4-17.28,20.51v.18h13.55l-1,5.58H360.14Z"/><path class="cls-1" d="M420.8,182.92a32.82,32.82,0,0,1-9.81,1.71c-4.19,0-7.61-1.08-10.13-3.33a12.28,12.28,0,0,1-3.82-9.36,17.9,17.9,0,0,1,6.21-13.86,20.79,20.79,0,0,1,13.36-4.41,20.49,20.49,0,0,1,8.06,1.35l-1.94,5.49a16.32,16.32,0,0,0-6.43-1.26,11.48,11.48,0,0,0-12.11,12.24c0,5.08,3,7.65,7.79,7.65a8.45,8.45,0,0,0,3.28-.54l1.22-6.39H411.8l1-5.17h11Z"/><path class="cls-1" d="M438.35,154,435,171.44a17,17,0,0,0-.32,3.6,4.07,4.07,0,0,0,4.41,4.32c3.38,0,5.63-2.25,6.71-7.87l3.33-17.5h6.47l-3.28,17.23c-1.75,9.18-5.81,13.59-14,13.59-6.25,0-10.08-3.2-10.08-9.68a23.8,23.8,0,0,1,.45-4.23l3.2-16.91Zm-1.62-4.55a3.21,3.21,0,0,1,3.28-3.28,2.76,2.76,0,0,1,2.88,2.88,3.2,3.2,0,0,1-3.24,3.24A2.84,2.84,0,0,1,436.73,149.44Zm9.31,0a3.22,3.22,0,0,1,3.28-3.28A2.76,2.76,0,0,1,452.2,149a3.17,3.17,0,0,1-3.23,3.24A2.85,2.85,0,0,1,446,149.44Z"/><path class="cls-1" d="M478.71,183.32a19.5,19.5,0,0,1-7,1.44l-1.08,1.53a3.17,3.17,0,0,1,2.74,3c0,3.06-3.19,4.14-5.67,4.14a5.64,5.64,0,0,1-3.46-.95l1-2.38a4.85,4.85,0,0,0,2.43.67c.81,0,1.67-.36,1.67-1.21s-.81-1.44-3.24-1.62l2.25-3.29c-7.11-.85-11.12-5.85-11.12-12.78s3.06-12.1,7.65-15.16a19.11,19.11,0,0,1,11.16-3.24,14.4,14.4,0,0,1,6.62,1.31L481,160.06a13.41,13.41,0,0,0-5.49-1,10.85,10.85,0,0,0-6.93,2.34,12.29,12.29,0,0,0-4.18,9.76c0,4.82,2.7,8.06,8.05,8.06a14.11,14.11,0,0,0,5.76-1.13Z"/><path class="cls-1" d="M496.71,154h6.39l-2.57,13.54h.14c.9-1.31,1.85-2.39,2.7-3.46L511.78,154h8.1L507.6,167.08l7,17.23h-7l-5.08-13.18-3.24,3.06-1.94,10.12H491Z"/><path class="cls-1" d="M525.51,176.44l-3.6,7.87H515L529.79,154h8.32l3.55,30.32h-6.79l-.63-7.87Zm8.46-4.95-.58-6.52c-.14-1.67-.32-4.1-.45-5.94h-.09c-.77,1.84-1.62,4.18-2.43,5.94l-3,6.52Z"/><path class="cls-1" d="M548.06,184.31l2.34-12.37L544.5,154h6.93l1.94,7.69c.54,2.52.85,4,1.17,5.49h.09c.9-1.62,1.8-3.33,3.1-5.53l4.55-7.65H570l-13.1,17.82-2.38,12.5Z"/><path class="cls-1" d="M567.32,184.31,573.08,154h7.6l4,11.56c1.21,3.87,2,7,2.74,10.35h.14A73.19,73.19,0,0,1,589,165L591,154h6l-5.71,30.32h-6.71l-4.23-12.1a95.08,95.08,0,0,1-3-10.57l-.13,0c-.36,2.93-1.08,7.25-2,12l-2,10.62Z"/><path class="cls-1" d="M605.88,176.44l-3.6,7.87H595.4L610.15,154h8.33L622,184.31h-6.79l-.63-7.87Zm8.46-4.95-.58-6.52c-.14-1.67-.32-4.1-.45-5.94h-.09c-.77,1.84-1.62,4.18-2.43,5.94l-3,6.52Z"/><path class="cls-1" d="M631.31,154h6.39l-2.57,13.54h.14c.9-1.31,1.84-2.39,2.7-3.46L646.38,154h8.1L642.2,167.08l7,17.23h-7l-5.09-13.18-3.24,3.06-1.93,10.12h-6.39Z"/><path class="cls-1" d="M658.08,154h6.48l-4.68,24.65h11.66l-1.08,5.67H652.32Z"/><path class="cls-1" d="M683.51,176.44l-3.6,7.87H673L687.78,154h8.33l3.55,30.32h-6.8l-.62-7.87Zm8.46-4.95-.59-6.52c-.14-1.67-.31-4.1-.45-5.94h-.09c-.77,1.84-1.62,4.18-2.43,5.94l-3,6.52Z"/><path class="cls-1" d="M708.89,154.57a37.45,37.45,0,0,1,8.1-.81c2.87,0,5.85.45,8,1.76a6.57,6.57,0,0,1,3.37,5.94c0,4.49-3,7.28-6.88,8.54v.18c1.8.77,2.57,2.79,2.88,5.54.36,3.37.63,7.33,1.17,8.59h-6.66a50,50,0,0,1-.9-7.15c-.27-3.69-1.53-4.82-4.09-4.82h-2l-2.25,12h-6.44Zm3.91,12.92h2.7c3.51,0,6.07-2.12,6.07-5.09,0-2.43-2.06-3.51-4.63-3.51a10.29,10.29,0,0,0-2.52.23Z"/><path class="cls-1" d="M741.74,154,736,184.31H729.5L735.26,154Z"/></svg>